<svg xmlns="http://www.w3.org/2000/svg" xmlns:xlink="http://www.w3.org/1999/xlink" version="1.1" x="0px" y="0px" width="500px" height="500px" viewBox="0 0 500 500" enable-background="new 0 0 500 500" xml:space="preserve" fill="#9e988e"><path d="M174.3 378h-54.5V202.3h54.5V378z M147.1 178.3c-17.5 0-31.6-14.2-31.6-31.7c0-17.5 14.1-31.6 31.6-31.6 c17.4 0 31.6 14.2 31.6 31.6C178.7 164.1 164.5 178.3 147.1 178.3z M378.5 378H324v-85.4c0-20.4-0.4-46.6-28.3-46.6 c-28.4 0-32.7 22.2-32.7 45.1V378h-54.5V202.3h52.3v24h0.7c7.3-13.8 25.1-28.4 51.6-28.4c55.2 0 65.4 36.4 65.4 83.7V378z"/></svg>