<svg xmlns="http://www.w3.org/2000/svg" width="128" height="128" viewBox="0 0 128 128"><title>Logo-Facebook</title><path d="M55.4883839,19.1520224 C59.4149821,15.4389187 65.0001072,14.1847936 70.2687289,14.028483 C75.8409006,13.9787258 81.4108726,14.0088229 86.9830443,14.0110073 C87.0050407,19.8486237 87.006996,25.6884246 86.9808447,31.5257983 C83.379793,31.5194876 79.7762972,31.5345361 76.1752455,31.5194876 C73.8917769,31.3782256 71.5469629,33.0971561 71.1319645,35.3452125 C71.077218,39.2512771 71.1121678,43.1595262 71.1143674,47.0658336 C76.3959425,47.0874355 81.6775176,47.0592802 86.9588483,47.0789404 C86.5722009,52.7296637 85.8663615,58.3546589 85.03832,63.9578095 C80.3731323,64.0012561 75.7052562,63.9534406 71.040313,63.9818386 C70.9987643,80.6480866 71.0620649,97.3143346 71.0075628,113.980583 C64.0782145,114.008738 57.1447113,113.967476 50.2156074,114 C50.0843623,97.3315676 50.2263612,80.65464 50.1435082,63.9840231 C46.762909,63.9490717 43.3803547,64.0080522 40,63.9558678 C40.0129534,58.3527172 40.0043993,52.7498093 40.0063545,47.1486005 C43.3845096,47.1075811 46.7651087,47.1573384 50.1435082,47.1248141 C50.2461579,41.6777314 50.040614,36.2243379 50.2505572,30.7818668 C50.5893014,26.4716763 52.2434292,22.1292043 55.4883839,19.1520224 L55.4883839,19.1520224 Z" fill="#fff"/></svg>
