<svg xmlns="http://www.w3.org/2000/svg" width="128" height="128" viewBox="0 0 128 128"><title>Logo-GooglePlus</title><path d="M128 57.667h-11.667V46h-11.666v11.667H93v11.666h11.667V81h11.666V69.333H128V57.667zm-87.184.476V72.2h23.149c-.933 6.033-6.997 17.689-23.149 17.689C26.88 89.889 15.51 78.29 15.51 64c0-14.291 11.37-25.889 25.306-25.889 7.93 0 13.236 3.398 16.269 6.326L68.163 33.72C61.05 27.04 51.837 23 40.816 23 18.251 23 0 41.333 0 64s18.25 41 40.816 41C64.373 105 80 88.366 80 64.937c0-2.694-.292-4.744-.641-6.794H40.816z" fill="#fff" fill-rule="evenodd"/></svg>