<?xml version="1.0" encoding="iso-8859-1"?>
<!-- Generator: Adobe Illustrator 19.0.0, SVG Export Plug-In . SVG Version: 6.00 Build 0)  -->
<svg xmlns="http://www.w3.org/2000/svg" xmlns:xlink="http://www.w3.org/1999/xlink" version="1.1" id="Layer_1" x="0px" y="0px" viewBox="0 0 512 512" style="enable-background:new 0 0 512 512;" xml:space="preserve" width="512px" height="512px">
<g>
	<g>
		<path d="M438.891,265.6l-68.416-76.907c-16.491-18.539-38.293-31.168-62.101-36.48c19.904-15.637,32.96-39.659,32.96-66.88    C341.333,38.272,303.061,0,256,0s-85.333,38.272-85.333,85.333c0,27.221,13.056,51.243,32.96,66.88    c-23.808,5.333-45.632,17.963-62.08,36.48l-68.16,76.672C67.328,271.403,64,279.445,64,288c0,17.643,14.357,32,32,32    c8.576,0,16.619-3.328,22.976-9.728l51.691-56.683v72.512l-51.499,49.067c-8.064,8.064-12.501,18.773-12.501,30.165    c0,11.392,4.437,22.101,12.736,30.4l71.296,66.88c6.016,6.059,14.08,9.387,22.635,9.387c17.643,0,32-14.357,32-31.979    c0-8.576-3.328-16.619-9.365-22.635l-39.573-39.573L228.587,384h54.827l32.171,33.792l-39.552,39.573    c-6.059,6.037-9.387,14.08-9.387,22.635c0,17.643,14.357,32,32,32c8.533,0,16.576-3.328,22.443-9.152l71.787-67.371    c8.064-8.064,12.501-18.773,12.501-30.165c0-11.392-4.437-22.101-12.693-30.336l-51.349-48.896v-72.512l52.032,57.024    c6.037,6.059,14.08,9.387,22.635,9.387c17.643,0,32-14.357,32-32C448,279.531,444.779,271.595,438.891,265.6z M192,85.333    c0-35.285,28.715-64,64-64s64,28.715,64,64s-28.715,64-64,64S192,120.619,192,85.333z M173.76,410.624    c-4.011,4.181-3.925,10.795,0.171,14.891l46.955,46.955c2.005,2.005,3.115,4.672,3.115,7.531c0,8.747-11.541,14.229-18.453,7.296    l-71.296-66.88c-4.032-4.032-6.251-9.387-6.251-15.083c0-5.696,2.219-11.051,6.059-14.912l51.136-48.704    c14.528,1.771,25.984,13.227,27.755,27.776L173.76,410.624z M278.421,362.667H233.6c-4.267-20.864-20.736-37.333-41.643-41.6    v-22.4h128.064v22.4C299.157,325.333,282.667,341.803,278.421,362.667z M377.792,390.251c4.032,4.032,6.251,9.387,6.251,15.083    c0,5.696-2.219,11.051-6.016,14.848l-71.787,67.371c-6.208,6.187-18.219,1.195-18.219-7.552c0-2.859,1.088-5.547,3.115-7.552    l46.933-46.955c4.096-4.096,4.181-10.709,0.171-14.891l-39.168-41.109c1.771-14.549,13.205-26.005,27.755-27.797L377.792,390.251z     M416,298.645c-2.837,0-5.525-1.109-7.189-2.773l-70.251-77.013c-2.944-3.243-7.616-4.288-11.733-2.752    c-4.096,1.579-6.805,5.525-6.805,9.941v51.285H191.957v-51.285c0-4.395-2.709-8.341-6.805-9.941    c-4.096-1.557-8.768-0.512-11.733,2.752l-69.909,76.672c-6.101,6.187-18.176,1.195-18.197-7.552c0-2.859,1.109-5.525,3.563-8    l68.587-77.141c18.197-20.459,44.352-32.192,71.744-32.192h26.581c0.064,0,0.128,0.021,0.213,0.021s0.128-0.021,0.213-0.021h26.56    c27.392,0,53.547,11.733,71.744,32.192l68.587,77.141c0.149,0.171,0.299,0.32,0.448,0.469c2.005,2.005,3.115,4.672,3.115,7.531    C426.667,293.867,421.888,298.645,416,298.645z" fill="#FFFFFF"/>
	</g>
</g>
<g>
</g>
<g>
</g>
<g>
</g>
<g>
</g>
<g>
</g>
<g>
</g>
<g>
</g>
<g>
</g>
<g>
</g>
<g>
</g>
<g>
</g>
<g>
</g>
<g>
</g>
<g>
</g>
<g>
</g>
</svg>
