<?xml version="1.0" encoding="iso-8859-1"?>
<!-- Generator: Adobe Illustrator 18.0.0, SVG Export Plug-In . SVG Version: 6.00 Build 0)  -->
<!DOCTYPE svg PUBLIC "-//W3C//DTD SVG 1.1//EN" "http://www.w3.org/Graphics/SVG/1.1/DTD/svg11.dtd">
<svg xmlns="http://www.w3.org/2000/svg" xmlns:xlink="http://www.w3.org/1999/xlink" version="1.1" id="Capa_1" x="0px" y="0px" viewBox="0 0 485.626 485.626" style="enable-background:new 0 0 485.626 485.626;" xml:space="preserve" width="512px" height="512px">
<g>
	<path d="M483.962,316.579c-1.193-1.291-2.867-2.026-4.626-2.026h-0.607H377.065v-67.793   c0-8.634-7.021-15.664-15.661-15.664h-22.417c-35.277,0-65.498,21.943-77.811,52.885l-22.005-47.313   c6.629-2.387,11.121-8.969,10.526-16.329c-0.713-8.808-8.413-15.373-17.239-14.657l-46.124,3.732l-32.381-76.887   c-2.298-5.455-7.271-8.956-12.748-9.652c0.001-0.026-65.289-0.126-65.475-0.12c-6.431-0.153-12.588,3.59-15.182,9.894   L1.207,276.895c-3.361,8.172,0.537,17.523,8.71,20.884c1.992,0.819,4.053,1.207,6.081,1.207c6.292,0,12.261-3.737,14.803-9.917   l26.868-65.31L57.32,346.542l-30.279,79.067c-4.147,10.831,1.271,22.974,12.102,27.121c2.471,0.946,5.009,1.395,7.506,1.395   c8.447,0,16.414-5.136,19.615-13.496l31.657-82.667c0.911-2.379,1.382-4.905,1.389-7.453l0.136-49.667h16.16l29.009,43.364   l-11.455,86.143c-1.529,11.497,6.552,22.056,18.048,23.585c0.941,0.125,1.872,0.186,2.795,0.186   c10.367,0,19.387-7.677,20.79-18.234l12.5-94c0.674-5.064-0.521-10.199-3.361-14.444l-25.37-37.925v-63.604l2.776,6.593   c2.514,5.966,8.349,9.79,14.739,9.79c0.431,0,0.863-0.018,1.298-0.053l41.26-3.339l36.706,78.921   c1.607,44.525,38.173,79.937,83.101,79.937h64.225c43.663,0,79.475-33.636,82.94-76.409   C485.747,319.604,485.149,317.875,483.962,316.579z M358.32,314.359h-83.996c-0.005-0.716-0.081-1.436-0.247-2.15   c1.395-34.622,29.953-62.366,64.911-62.366h19.333V314.359z" fill="#FFFFFF"/>
	<path d="M402.002,407.921c-12.589,0-22.836,10.246-22.836,22.836c0,12.59,10.246,22.835,22.836,22.835   c12.589,0,22.835-10.246,22.835-22.835C424.837,418.167,414.591,407.921,402.002,407.921z M402.002,435.549   c-2.643,0-4.794-2.15-4.794-4.792c0-2.643,2.15-4.793,4.794-4.793c2.643,0,4.793,2.149,4.793,4.793   C406.795,433.399,404.645,435.549,402.002,435.549z" fill="#FFFFFF"/>
	<path d="M338.852,407.921c-12.589,0-22.835,10.246-22.835,22.836c0,12.59,10.246,22.835,22.835,22.835   c12.589,0,22.835-10.246,22.835-22.835C361.688,418.167,351.442,407.921,338.852,407.921z M338.852,435.549   c-2.643,0-4.794-2.15-4.794-4.792c0-2.643,2.152-4.793,4.794-4.793c2.643,0,4.793,2.149,4.793,4.793   C343.645,433.399,341.495,435.549,338.852,435.549z" fill="#FFFFFF"/>
	<path d="M108.111,114.728c22.987,0,41.614-18.627,41.614-41.613c0-22.986-18.626-41.613-41.614-41.613   c-22.987,0-41.612,18.627-41.612,41.613C66.499,96.1,85.124,114.728,108.111,114.728z" fill="#FFFFFF"/>
	<circle cx="420.708" cy="273.38" r="28.487" fill="#FFFFFF"/>
</g>
<g>
</g>
<g>
</g>
<g>
</g>
<g>
</g>
<g>
</g>
<g>
</g>
<g>
</g>
<g>
</g>
<g>
</g>
<g>
</g>
<g>
</g>
<g>
</g>
<g>
</g>
<g>
</g>
<g>
</g>
</svg>
